<svg xmlns="http://www.w3.org/2000/svg" viewBox="0 0 32 32">
  <rect width="32" height="32" rx="6" fill="#f7df1e"/>
  <path fill="#323330" d="M8.6 26.5l2.2-1.3c.4.8.9 1.4 1.6 1.4.8 0 1.3-.3 1.3-1.5v-7.9h2.7v7.9c0 2.5-1.4 3.6-3.5 3.6-1.9 0-3.2-.9-3.8-2.2zm8.5-3.2c.3.5.6 1 1.2 1 .6 0 .9-.3.9-.7 0-.5-.4-.7-1.1-1l-1.2-.5c-1.1-.4-1.8-1.2-1.8-2.4 0-1.2.9-2.1 2.3-2.1.9 0 1.7.3 2.2 1l-2.1 1.3c-.3-.5-.5-.8-1-.8s-.6.2-.6.6c0 .4.3.6 1 .9l1.2.5c1.3.5 2 1.2 2 2.5 0 1.3-1 2.2-2.5 2.2-1.1 0-2-.5-2.5-1.2z"/>
</svg>
